<mxfile host="app.diagrams.net" modified="2024-05-31T07:19:49.429Z" agent="Mozilla/5.0 (Macintosh; Intel Mac OS X 10_15_7) AppleWebKit/605.1.15 (KHTML, like Gecko) Version/17.4.1 Safari/605.1.15" version="24.4.10" etag="bOhnpDILBWkylQc1Homh" type="github">
  <diagram name="Trang-1" id="BBTWBSMVRAPu2mxZLsub">
    <mxGraphModel>
      <root>
        <mxCell id="0" />
        <mxCell id="1" parent="0" />
      </root>
    </mxGraphModel>
  </diagram>
</mxfile>
